<svg width="169" height="137" viewBox="0 0 169 137" fill="none" xmlns="http://www.w3.org/2000/svg">
<g clip-path="url(#clip0_22_17)">
<path d="M40.4181 18.5116C40.7241 19.2262 41.0424 19.9364 41.328 20.6382C41.5525 21.1911 41.834 21.7398 42.4665 21.2549C43.7723 20.2554 44.8414 20.8551 45.9677 21.6164C47.0939 22.3777 48.2201 22.416 49.2321 21.2847C51.7376 18.4181 54.6797 19.2687 57.5565 20.3617C59.1888 20.9742 60.6741 21.9056 62.2288 22.684C64.5711 23.8536 65.6851 25.8398 65.7993 28.4852C65.836 29.2721 65.7993 30.0546 65.8238 30.8415C65.8891 34.8267 65.8932 34.8352 69.6963 34.5672C70.9205 34.4821 71.81 35.1541 72.7241 35.8899C76.5272 38.9522 80.1018 42.3037 84.1293 45.081C86.749 46.8843 89.585 48.0284 92.5271 49.0066C92.9556 49.1512 93.5269 49.1512 93.7921 49.4532C96.2405 52.2305 98.2604 50.5207 100.288 48.8067C100.578 48.56 100.921 48.3814 101.198 48.1092C102.37 47.0034 104.712 47.0119 104.957 45.4255C105.173 44.0262 103.941 42.4227 103.471 40.8704C101.119 32.982 100.312 24.6815 101.096 16.4616C102.035 6.03294 111.33 -0.971965 120.198 0.848376C127.29 2.30295 131.701 6.40297 134.745 12.7571C135.594 14.5222 135.373 16.4319 135.055 18.2862C134.737 20.1406 134.798 21.727 135.81 23.4368C137.703 26.6351 136.589 29.8165 135.055 32.7937C133.521 35.7708 134.186 38.1781 136.585 40.2324C145.681 48.0029 154.54 56.0498 159.281 67.7076C161.84 74.0193 163.093 80.7222 164.178 87.4677C165.402 94.9574 166.818 102.409 168.214 109.865C169.09 114.814 168.979 119.899 167.887 124.802C167.594 126.218 166.663 126.975 165.521 126.818C164.133 126.626 164.562 125.231 164.733 124.313C166.32 115.679 164.733 107.326 162.734 99.0064C162.574 98.2421 162.452 97.4699 162.366 96.6927C162.15 95.1148 162.366 93.3285 160.065 93.0733C159.343 92.9925 159.016 92.01 158.739 91.2785C157.339 87.5655 155.038 84.4735 152.524 81.5388C150.545 79.1766 148.709 76.688 147.027 74.0873C146.407 73.1516 145.962 72.1819 146.346 71.0123C146.575 70.3105 146.921 69.6853 147.701 69.6045C148.48 69.5237 148.958 70.0596 149.227 70.7571C150.492 74.015 152.622 76.6562 154.842 79.2123C156.826 81.4994 158.67 83.9143 160.363 86.4427C160.169 83.2417 159.658 80.0704 158.837 76.9794C156.188 66.6784 151.145 57.9765 143.457 50.9077C141.192 48.8237 140.482 48.8322 138.311 50.9333C135.475 53.6765 132.941 56.6622 131.46 60.4518C131.218 61.1145 130.825 61.7061 130.316 62.1757C129.806 62.6454 129.195 62.9791 128.534 63.1483C126.902 63.6161 126.012 64.6836 126.294 66.4147C126.873 69.9788 125.306 72.7348 123.564 75.5419C121.882 78.2281 120.349 81.0128 118.973 83.8823C117.721 86.5192 115.272 87.9738 113.705 90.262C112.967 91.2406 112.463 92.3878 112.232 93.6092C111.061 100.908 110.469 108.18 111.608 115.585C112.167 119.192 112.106 122.913 112.665 126.558C112.844 127.724 113.024 129.374 111.298 129.501C109.727 129.616 109.413 128.085 109.278 126.86C108.849 122.969 108.723 119.034 108.164 115.164C106.56 104.08 108.707 93.3285 110.886 82.6404C111.894 77.694 113.958 72.9602 116.399 68.5285C117.541 66.4614 116.729 64.9729 115.831 63.3397C115.37 62.489 114.807 62.5996 114.175 63.178C112.975 64.2626 111.82 65.3684 111.298 67.0058C109.074 73.9895 106.699 80.9221 104.646 87.961C102.716 94.5747 102.284 101.52 101.015 108.278C99.9783 113.807 100.035 119.336 100.048 124.917C100.042 126.17 99.9682 127.423 99.8273 128.668C99.7131 129.731 99.3417 130.82 98.1135 130.752C96.8852 130.684 96.9179 129.54 96.8281 128.6C96.42 124.142 96.2119 119.694 96.8281 115.228C98.1624 105.548 99.252 95.8208 101.725 86.3491C103.051 81.2836 104.989 76.4436 106.67 71.5099C107.283 69.7151 107.993 67.8948 108.086 65.2068C105.373 68.8645 103.675 72.4031 101.578 75.6652C98.8929 79.8461 98.6888 84.7627 97.3912 89.3731C94.9755 97.9559 94.5715 106.811 93.4738 115.56C93.176 117.954 93.3596 120.417 93.2657 122.845C93.2208 124.04 93.1229 125.397 91.5356 125.321C90.0829 125.248 90.091 123.943 90.0992 122.837C90.1767 112.081 90.9153 101.384 93.8329 91.019C95.3101 85.7707 94.9796 80.6584 94.0206 75.4611C93.8329 74.4531 93.3882 73.7598 92.3476 73.5046C84.5496 71.6715 78.2818 66.9591 72.2915 61.7788C69.6383 59.4564 66.5942 57.6681 63.3142 56.5049C61.5922 55.9009 60.7924 54.8929 60.8414 52.8769C60.923 49.5382 59.1153 46.3867 59.9274 42.9076C60.164 41.8911 58.899 41.402 58.1768 40.9682C54.375 38.7121 51.0185 35.7246 48.2854 32.1642C47.404 30.9988 46.6899 29.6974 45.8616 28.4895C44.3558 26.2821 43.0052 26.3331 41.8055 28.6001C41.2832 29.5783 40.72 30.7266 39.4306 30.2333C38.0391 29.6974 38.6553 28.4555 38.8348 27.3964C39.2755 24.8445 39.1449 22.4075 37.3821 20.3362C36.7578 19.6047 35.6642 18.9412 36.4273 17.7843C37.2434 16.5382 38.2758 17.2357 39.2184 17.7546C39.4836 17.9034 39.7733 18.0055 40.0345 18.1246L40.4181 18.5116ZM126.086 15.628C126.127 14.0884 126.302 11.9235 125.727 9.89054C125.131 7.78949 124.76 5.2929 122.193 4.65918C117.978 3.62142 113.918 3.53636 110.168 6.48803C105.973 9.80122 104.332 14.2585 104.161 19.5154C104.128 20.5149 104.381 21.1783 105.597 20.9742C106.96 20.7445 108.931 19.996 109.331 21.8248C109.678 23.4027 111.253 23.9854 111.282 25.4655C111.266 26.7943 111.174 28.1209 111.004 29.4379C110.829 31.237 110.8 32.7766 113.318 32.3216C113.544 32.2759 113.776 32.2805 114 32.3351C114.224 32.3898 114.435 32.4932 114.618 32.6386C114.801 32.784 114.952 32.9681 115.062 33.1788C115.172 33.3895 115.238 33.622 115.256 33.8612C115.383 34.9457 114.538 35.32 113.763 35.6475C112.612 36.1281 111.392 36.0218 110.196 36.0133C108.564 36.0133 107.666 35.0903 107.682 33.3806C107.682 32.2918 107.854 31.1987 107.964 30.1142C108.172 27.9876 106.401 28.4725 105.454 28.2641C104.153 27.9834 104.671 29.2976 104.679 29.91C104.777 35.7581 106.14 41.1723 109.706 45.8635C111.486 48.207 112.404 48.6281 115.097 47.5393C118.831 46.0337 122.128 43.6604 125.604 41.6529C126.967 40.8618 127.69 39.3775 127.922 37.7783C128.171 36.0388 129.057 34.8479 130.228 33.6358C132.044 31.7474 133.492 29.54 133.447 26.6606C133.447 25.2699 133.072 24.5681 131.448 24.6489C128.13 24.819 126.143 22.701 126.09 19.2687C126.074 18.2394 126.086 17.2229 126.086 15.628ZM97.3667 75.729C102.949 69.63 104.789 61.6256 109.066 55.0588C109.882 53.8084 110.629 51.4947 108.629 49.7424C106.63 47.9901 105.275 49.3979 103.798 50.3336C102.618 51.0163 101.542 51.8761 100.603 52.8855C100.03 53.6114 99.2891 54.1731 98.4501 54.5177C97.6112 54.8622 96.7018 54.9782 95.8079 54.8547C93.6738 54.659 92.4415 55.8669 91.8049 57.8786C91.6621 58.3252 91.5274 58.776 91.3519 59.2099C90.9724 60.1541 90.393 60.9111 89.3116 60.5368C88.2303 60.1626 88.1976 59.1376 88.4098 58.1849C88.8179 56.4241 89.2749 54.659 90.7031 53.4469C91.8661 52.4559 91.454 51.9498 90.2624 51.652C87.2918 50.912 84.6639 49.4362 82.1013 47.7221C78.5968 45.3032 75.2238 42.6835 71.9977 39.8751C71.2143 39.2116 70.443 38.4078 69.5004 39.5179C66.7623 42.7375 64.5711 46.2718 64.1181 50.6696C63.9875 51.9455 64.2609 53.1151 65.6198 53.7744C69.4302 55.6495 73.0079 58.0003 76.2742 60.775C79.3795 63.3822 82.5991 65.8362 86.2512 67.58C86.8551 67.8692 87.4754 68.5327 88.3731 67.9203C87.7977 66.9165 87.1938 66.0276 86.7409 65.0537C86.2879 64.0797 86.2349 62.9824 87.3897 62.4465C88.4343 61.9574 89.0831 62.6549 89.5524 63.5651C90.2951 65.0069 91.1561 66.3424 92.6292 67.3333C92.8046 66.7677 92.9556 66.3296 93.078 65.8873C93.3841 64.8027 93.9513 63.9691 95.151 64.2115C96.5506 64.5008 96.1915 65.6448 96.1017 66.6613C95.8569 69.8002 96.9383 72.6838 97.3667 75.729ZM113.714 84.2353C115.244 83.8738 115.819 82.8913 116.362 81.8705C117.586 79.5441 118.688 77.0985 120.161 74.9422C122.103 72.1054 123.425 69.2515 123.017 65.6193C122.74 63.093 123.939 61.2046 126.343 60.4178C126.954 60.2306 127.518 59.9047 127.995 59.4635C128.471 59.0223 128.847 58.4767 129.097 57.8659C131.019 53.5787 134.076 50.274 137.52 47.3011C137.793 47.0629 138.271 46.6248 138.213 46.5058C137.536 45.0597 136.344 44.0687 135.088 43.2436C134.125 42.6099 133.586 43.6391 133.096 44.2601C130.717 47.3096 128.95 50.7631 127.098 54.1699C122.908 61.773 119.21 69.6588 116.027 77.7748C115.215 79.8971 114.485 82.0747 113.714 84.231V84.2353ZM51.1255 30.6458C54.1492 34.3035 57.2219 36.8256 60.874 38.5269C62.3063 39.1946 63.6815 38.0122 63.4489 36.8682C62.8164 33.7804 63.2612 30.5948 62.4083 27.5708C62.2595 27.1228 62.0178 26.7145 61.7004 26.3749C61.383 26.0353 60.9978 25.7728 60.5721 25.6059C58.8664 24.7935 57.1566 23.9939 55.4142 23.2709C54.5451 22.9094 53.6065 22.5946 52.4354 23.3304C54.6879 24.8828 56.4711 26.5501 55.4795 29.523C54.8021 31.539 53.1944 31.0796 51.1255 30.6331V30.6458ZM126.318 48.8918C123.87 50.3208 121.552 51.7924 119.275 53.298C115.354 55.8499 115.362 55.8797 117.721 60.103C117.8 60.2391 117.873 60.3809 117.941 60.5283C118.651 61.9063 119.394 61.715 120.051 60.5283C122.164 56.6282 124.241 52.7579 126.318 48.8918ZM129.081 10.4605C129.081 13.5014 129.044 16.2575 129.106 19.0093C129.126 19.8173 129.783 20.1831 130.534 20.2086C131.285 20.2342 131.558 19.7365 131.791 19.0986C132.819 16.3213 131.795 12.6168 129.097 10.4605H129.081Z" fill="#333333"/>
<path d="M135.365 85.9578C134.643 92.0993 136.328 97.9218 137.503 103.821C138.727 109.865 139.005 115.917 137.56 121.99C136.789 125.218 137.152 128.544 137.079 131.828C137.058 132.534 137.132 133.24 137.099 133.954C137.05 135.039 136.732 136.2 135.577 136.217C134.422 136.234 133.855 135.294 133.688 134.014C133.072 129.276 133.602 124.551 134.565 120.004C135.814 114.118 135.218 108.423 133.9 102.796C132.367 96.2465 131.837 89.4857 132.329 82.7637C132.5 80.2586 132.011 77.7705 131.729 75.2824C131.651 74.5025 131.615 73.7188 131.619 72.9347C131.619 71.9394 131.774 70.94 132.978 70.9017C134.006 70.8634 134.316 71.7268 134.479 72.6327C135.038 75.3957 135.336 78.2091 135.369 81.0326C135.353 82.6658 135.365 84.3118 135.365 85.9578Z" fill="#333333"/>
<path d="M127.098 89.7516C126.612 99.6873 126.95 109.648 128.106 119.524C128.452 122.654 129.738 125.533 130.415 128.587C130.705 129.897 130.978 131.198 130.721 132.53C130.55 133.431 130.089 134.184 129.089 134.146C128.175 134.112 127.922 133.355 127.685 132.559C124.29 121.152 123.719 109.371 123.625 97.5603C123.592 93.3497 124.086 89.1221 123.923 84.8903C123.911 84.734 123.918 84.5769 123.943 84.4224C124.16 83.223 124.086 81.5473 125.661 81.5813C127.138 81.6111 127.02 83.2443 127.081 84.3586C127.171 86.1449 127.098 87.9525 127.098 89.7516Z" fill="#333333"/>
<path d="M4.37011 28.5108C4.57006 29.0084 4.77817 29.5017 4.96588 30.0036C5.32905 30.9478 5.46779 31.909 4.415 32.4236C3.46831 32.883 2.67667 32.4577 2.07683 31.607C-0.563313 27.7792 0.591493 19.7621 4.17833 16.9635C4.68243 16.4851 5.34103 16.2224 6.02275 16.2277C6.36393 16.2213 6.69891 16.3232 6.98317 16.52C7.26743 16.7167 7.48752 16.999 7.61418 17.3293C7.90798 18.1246 7.55297 18.669 6.89192 19.0773C4.85162 20.3532 4.08447 22.4415 3.60296 24.6872C3.47647 25.2826 3.60297 26.3884 4.11304 26.2821C5.06381 26.1247 5.99419 25.5165 6.81439 24.9211C7.38567 24.4958 6.94496 24.0705 6.56139 23.5941C5.16991 21.8929 5.59429 20.5531 7.67131 20.1916C9.00637 20.0255 10.3503 19.9488 11.6948 19.962C11.9976 19.9317 12.3021 19.9991 12.567 20.155C12.8319 20.3109 13.0445 20.5479 13.176 20.8338C13.3341 21.1493 13.3798 21.5129 13.3051 21.8601C13.2304 22.2074 13.0401 22.5158 12.768 22.7307C11.4867 23.9174 11.1031 24.9679 13.1026 25.8143C13.8779 26.146 14.2737 26.8605 13.8126 27.7282C13.2699 28.7532 12.3313 29.7357 11.2908 29.0041C9.65855 27.8515 8.23035 27.7282 6.57771 28.7744C5.82688 29.2508 5.14543 28.7957 4.37011 28.5108Z" fill="#333333"/>
<path d="M32.1384 27.2263C30.1308 27.0519 29.0821 26.2225 29.4738 24.1683C29.6126 23.4282 29.2657 22.7988 29.0658 22.131C28.6577 20.8551 29.1923 20.0044 30.2532 19.4303C31.3142 18.8561 32.3914 19.0645 32.9586 20.2256C33.4197 21.1698 33.6483 21.5015 34.7133 20.8083C35.9742 19.9577 36.9739 20.6467 36.9658 22.1991C36.9658 25.1167 37.7411 28.0344 36.8352 30.969C36.3904 32.4023 36.3292 34.0653 34.5868 34.3715C32.6118 34.7288 31.408 33.5209 30.4368 31.8196C29.4657 30.1184 30.3144 29.0211 31.2897 27.8812C31.5545 27.6385 31.8384 27.4194 32.1384 27.2263Z" fill="#333333"/>
<path d="M20.9165 19.7578C21.1613 19.7833 21.2715 19.7578 21.3246 19.8003C22.663 21.3357 24.3279 21.9609 26.2988 22.3182C27.3067 22.5011 26.6416 24.8233 25.1236 25.2614C23.6056 25.6994 22.2141 25.7632 21.6061 27.7452C21.296 28.7064 19.8147 28.6724 19.4067 27.6686C18.864 26.3119 18.0887 26.0354 16.8237 25.8611C15.5587 25.6867 15.322 23.8919 16.4156 23.4027C18.003 22.684 19.5903 22.1949 20.0881 20.1789C20.1575 19.945 20.7206 19.8514 20.9165 19.7578Z" fill="#333333"/>
<path d="M40.4179 18.5116L40.0547 18.1373C40.1649 17.1974 40.2995 16.2532 41.1156 15.6492C42.0705 14.9475 43.1559 14.335 41.5237 13.1229C41.1932 12.8677 41.2544 12.1744 41.5686 11.8129C42.6377 10.5965 44.0904 10.4392 45.5023 10.6901C46.8285 10.924 46.9101 12.1659 46.804 13.3015C46.6448 14.9687 45.7879 16.4786 46.1307 18.2989C46.3102 19.2346 45.1962 19.6514 44.3107 19.5153C43.0009 19.3069 41.6298 19.2304 40.4179 18.5116Z" fill="#333333"/>
<path d="M116.043 19.9109C117.602 19.7833 119.202 20.5404 120.765 21.2421C122.328 21.9439 122.503 23.4623 121.136 24.4915C120.508 24.8938 120.046 25.5241 119.838 26.2608C119.475 27.5963 118.692 28.566 117.215 28.0174C115.799 27.4942 114.962 26.431 115.489 24.7552C115.77 23.8578 116.162 23.0072 114.721 23.054C113.607 23.0965 112.681 22.8838 112.783 21.4931C112.889 20.2512 113.86 19.9322 114.917 19.8981C115.215 19.9024 115.517 19.9109 116.043 19.9109Z" fill="#333333"/>
<path d="M109.331 40.3089C108.164 40.3642 107.458 40.0154 107.237 39.033C107.017 38.0505 107.686 37.4721 108.425 37.3317C110.694 36.9064 112.987 36.5406 115.284 36.3492C116.296 36.2642 117.255 36.8213 117.227 38.1313C117.198 39.3222 116.341 39.7007 115.366 39.7347C113.26 39.7943 111.163 39.8496 109.331 40.3089Z" fill="#333333"/>
</g>
<defs>
<clipPath id="clip0_22_17">
<rect width="168.157" height="135.645" fill="white" transform="translate(0.63623 0.559143)"/>
</clipPath>
</defs>
</svg>
