<svg width="86" height="138" viewBox="0 0 86 138" fill="none" xmlns="http://www.w3.org/2000/svg">
<g clip-path="url(#clip0_22_28)">
<path d="M69.5486 41.9478C69.4839 44.8576 70.1009 46.714 70.3675 48.5507C70.8284 51.7425 72.7023 52.7608 74.8885 54.3821C78.0384 56.7319 79.6191 60.4838 79.8857 64.5332C80.377 71.9977 81.4092 79.4152 81.7215 86.8797C81.9615 92.4213 83.8506 97.5948 84.4258 102.937C85.0504 108.733 86.4825 114.65 84.7724 120.56C84.4696 121.726 83.9293 122.813 83.1873 123.748C82.4454 124.683 81.5186 125.445 80.4684 125.984C74.0773 129.348 67.4119 129.791 60.4951 128.228C57.0672 127.445 53.5402 128.115 50.0857 127.574C49.6438 127.504 49.1411 127.598 48.9773 128.122C47.9756 131.326 45.2371 132.513 42.6509 133.825C39.8678 135.261 36.7869 135.98 33.6736 135.92C32.9117 135.897 32.1529 136.03 31.4416 136.312C28.0708 137.647 24.7267 137.416 21.4511 136.01C18.9069 134.917 16.4235 135.654 14.0011 136.268C11.194 136.981 8.74118 136.268 6.34925 134.937C4.73051 134.044 3.76689 132.689 3.7707 130.703C3.77451 128.718 2.85659 126.936 2.35763 125.06C-0.118084 115.77 -0.529434 106.32 0.590352 96.8076C1.29498 90.8 1.37496 84.7414 2.06055 78.7181C2.689 73.1961 3.48123 67.725 6.25022 62.8335C7.97561 59.7867 10.8893 58.0791 13.8678 56.6184C15.0371 56.0427 15.6884 55.4787 15.837 54.1354C16.075 52.5901 16.116 51.0194 15.9588 49.4632C15.5596 47.01 15.6726 44.4976 16.2902 42.0927C17.1739 38.8813 17.0862 35.6543 17.0748 32.4077C17.0748 27.6533 17.4557 23.0085 20.339 19.0217C20.9674 18.1484 20.9522 17.0635 20.9865 16.0179C21.1312 11.4162 24.2392 7.01034 28.4745 5.61222C29.9409 5.12659 30.9693 4.51956 31.5901 2.90996C32.4471 0.669824 34.5001 0.082376 37.25 0.000133349C42.1062 -0.121273 46.8939 1.35518 51.7996 0.470092C53.5669 0.148953 60.796 4.24934 61.4511 5.95294C62.4414 8.53379 63.6412 11.0911 63.7707 13.9344C63.7803 14.7802 64.0921 15.5929 64.6467 16.2176C67.3509 19.3507 67.7661 23.2043 67.6137 27.1559C67.5216 28.249 67.6222 29.3502 67.9108 30.4064C69.1296 34.4637 69.2629 38.7051 69.5486 41.9478ZM45.9341 128.021C45.0733 128.126 44.6429 128.185 44.2087 128.232C40.7313 128.604 39.84 128.028 38.9411 124.563C38.644 123.419 37.8975 123.415 37.0672 123.388C35.0485 123.317 32.9537 123.603 31.1026 122.557C29.7601 121.797 28.2086 121.521 26.6958 121.774C23.8545 122.201 21.3635 121.202 19.1773 119.648C16.991 118.093 14.6943 117.991 12.3024 118.312C10.9465 118.496 9.63624 119.095 8.31078 119.522C7.54902 119.765 6.89391 119.687 6.53207 118.9C6.44418 118.74 6.39095 118.562 6.37603 118.379C6.36111 118.196 6.38486 118.012 6.44565 117.84C6.50643 117.667 6.60281 117.51 6.72818 117.379C6.85355 117.249 7.00493 117.147 7.17195 117.082C8.90495 116.358 10.4818 115.124 12.5043 115.277C13.3841 115.347 14.2754 115.32 15.1704 115.3C16.9567 115.257 17.1281 114.909 16.4045 113.162C15.993 112.278 15.4157 111.486 14.7058 110.832C13.7155 109.81 13.5898 108.639 15.0371 108.032C16.1798 107.542 16.3169 106.763 16.294 105.733C16.1874 100.528 16.1112 95.3194 15.9741 90.1146C15.9398 88.834 15.9474 87.6983 17.5585 87.5847C17.6695 87.5959 17.7815 87.582 17.8866 87.5439C17.9917 87.5058 18.0874 87.4444 18.167 87.3641C18.2465 87.2838 18.308 87.1866 18.347 87.0792C18.386 86.9718 18.4016 86.8569 18.3927 86.7427C18.4688 85.6931 18.5564 84.6435 18.6593 83.3825C17.9318 84.0913 17.5166 84.8668 16.5835 84.5574C16.3013 84.4772 16.0597 84.2886 15.9088 84.0307C15.7578 83.7727 15.7089 83.4649 15.7722 83.171C16.0693 80.8917 14.9419 79.1998 13.7497 77.4727C12.4966 75.6556 11.4645 73.6896 11.3045 71.4064C11.2321 70.4899 11.2245 69.409 12.4471 69.2916C13.6698 69.1741 14.0316 70.1492 14.0659 71.2223C14.0971 72.0949 14.3053 72.9512 14.6772 73.7362C15.0491 74.5213 15.5764 75.2177 16.2255 75.7809C14.3782 71.7432 14.8657 67.6663 15.7989 63.5463C15.9806 62.4562 16.061 61.3507 16.0388 60.2449C16.0845 59.07 15.5132 58.5452 14.5153 59.2031C12.3557 60.6522 9.90667 61.8584 8.60406 64.2943C6.78345 67.678 5.77793 71.3437 5.24089 75.2052C4.65815 79.4074 4.40677 83.6253 4.19728 87.8432C3.8164 95.758 2.00342 103.587 2.96704 111.58C3.47361 115.77 3.83164 119.996 4.97428 124.057C5.53417 126.055 6.31497 127.974 6.42162 130.085C6.49018 131.538 7.37382 132.477 8.64976 132.975C10.2571 133.594 11.853 134.071 13.6355 133.504C16.9682 132.442 20.3237 132.066 23.6488 133.641C25.3932 134.471 27.2748 134.424 29.0611 134.032C31.7273 133.433 34.4505 133.229 37.1091 132.681C40.2666 132.004 43.3403 130.966 45.9341 128.021ZM68.6573 73.8423C69.2736 71.6013 69.3507 69.2398 68.8821 66.9613C68.4098 64.4118 67.7394 61.8936 67.6518 59.2697C67.5414 54.9617 68.1013 50.7282 67.13 46.3458C66.1816 42.0966 66.7491 37.5145 65.6446 33.2144C65.0161 30.7824 65.0276 28.3582 64.9285 25.887C64.799 22.6521 64.7305 19.1118 60.6208 18.0544C60.2617 17.9177 59.9366 17.7011 59.6686 17.4199C58.4802 16.3547 57.4252 17.1144 56.3587 17.6549C55.2923 18.1954 55.3113 19.1157 55.3646 20.1535C55.6084 24.6338 55.9893 29.1023 55.955 33.5943C55.9678 35.1652 55.4419 36.6905 54.4696 37.9023C52.6833 40.2521 51.5292 42.9387 51.693 46.009C51.8034 48.0534 51.4264 49.8823 50.1695 51.4919C49.3391 52.5415 49.442 53.7359 50.3675 54.4565C51.9672 55.6941 52.3824 57.5269 53.1175 59.2149C53.6583 60.4603 53.7383 61.9563 54.6638 62.9667C56.8272 65.2812 56.6101 67.8856 55.8636 70.627C55.4827 72.0251 55.258 73.4507 55.7608 74.8527C56.6673 77.3944 58.0917 79.709 58.7507 82.3995C59.4363 82.0078 59.4172 81.4439 59.5353 80.9622C60.118 78.5654 60.6475 76.1529 61.2645 73.764C61.4892 72.9063 62.0262 72.1544 63.0318 72.3972C63.9192 72.6087 64.1363 73.3919 64.0563 74.2457C64.0166 74.7602 64.077 75.2776 64.234 75.7678C64.3909 76.258 64.6413 76.7111 64.9704 77.1007C65.4846 76.2704 65.2789 75.5342 65.317 74.8449C65.3742 73.8619 65.317 72.781 66.4025 72.358C67.5756 71.8881 67.9641 73.0669 68.6573 73.8423ZM82.7499 115.136C82.2776 109.375 82.1062 103.591 80.5256 97.9629C79.7638 95.2959 78.8497 92.6328 78.8535 89.7817C78.8535 80.7233 77.7109 71.7667 76.751 62.7787C76.454 60.0373 75.0904 57.4212 72.489 55.9604C71.0493 55.1458 70.5656 55.4748 70.4475 57.1353C70.2685 59.5673 70.7598 61.9171 71.1864 64.2904C71.5977 66.5815 72.4814 68.8725 72.0015 71.2145C71.5368 73.4703 71.5939 75.7456 71.3159 77.9897C70.9693 80.7664 71.0112 83.7545 68.8821 85.9947C68.2879 86.6173 68.3679 87.4241 68.3069 88.1995C67.8444 93.921 68.4679 99.6804 70.1428 105.157C70.7522 107.186 71.7577 108.353 73.6431 108.682C74.7133 108.878 75.098 109.395 74.9647 110.385C74.8238 111.435 74.043 111.76 73.1517 111.678C72.5915 111.592 72.0502 111.407 71.552 111.13C69.4991 110.119 69.1449 110.28 68.6535 112.52C68.2003 114.603 67.2405 115.12 65.2256 114.545C63.8887 114.153 62.8984 113.264 61.7977 112.524C61.2035 112.132 60.5256 111.776 59.8933 112.379C59.261 112.982 59.5124 113.765 59.8476 114.368C60.2054 115.131 60.7262 115.8 61.3711 116.327C64.799 118.735 67.5185 121.935 70.3942 124.942C71.1102 125.698 71.811 125.761 72.7747 125.628C74.7628 125.346 76.4387 124.222 78.3126 123.67C80.4341 123.063 81.6263 121.578 82.2167 119.526C82.6284 118.104 82.8073 116.622 82.7461 115.14L82.7499 115.136ZM17.8632 69.0331C17.7833 70.9912 17.9394 72.9494 19.0059 74.6843C20.1904 76.619 21.3864 78.5067 21.672 80.8682C21.7977 81.8982 22.7385 82.607 23.5574 82.8968C24.4905 83.2258 24.5591 81.9726 24.9705 81.4008C25.7322 80.3277 25.9227 79.051 26.1626 77.7547C26.6082 75.3266 26.612 72.8593 27.1186 70.4234C27.6557 67.8425 28.3146 65.2225 28.2041 62.5163C28.1698 61.643 28.1051 60.8911 27.3928 60.2449C26.4864 59.4224 26.3721 58.459 27.3928 57.6053C27.7737 57.3076 27.7356 57.0061 27.6937 56.587C27.5441 55.1941 27.6829 53.7844 28.101 52.4506C28.5192 51.1168 29.2073 49.8891 30.1199 48.8484C31.114 47.6421 31.2892 46.2597 31.095 44.654C30.7674 41.9126 29.4915 39.4845 28.7754 36.8762C27.3433 31.6557 26.4178 26.4744 28.5964 21.2109C29.1144 19.9577 29.7391 18.7201 29.7391 17.2946C29.7391 14.9722 29.9067 12.783 31.7615 11.0285C32.4966 10.3314 32.1424 9.17998 31.8339 8.2479C31.809 8.15127 31.7653 8.06079 31.7056 7.98189C31.6459 7.90298 31.5713 7.83725 31.4864 7.78864C31.4014 7.74002 31.3078 7.70951 31.2111 7.69892C31.1144 7.68834 31.0166 7.6979 30.9236 7.72703C29.5791 8.25182 27.9413 8.23223 26.9358 9.39538C24.9286 11.7491 23.3784 14.3534 23.4279 17.6236C23.4571 18.9958 23.0417 20.339 22.2472 21.442C20.876 23.4393 20.3732 25.6912 20.1104 28.1741C19.6458 32.5565 20.7884 37.0368 19.2535 41.3369C18.5717 43.2598 18.6326 45.2924 18.4917 47.3093C18.0461 54.2176 19.6572 61.1926 17.8747 68.0657C17.8332 68.3866 17.8294 68.7113 17.8632 69.0331ZM47.2595 109.614C49.96 107.683 51.0379 107.679 53.1327 109.516C53.6126 109.935 54.0506 110.409 54.5191 110.848C55.4713 111.733 56.2064 111.556 57.3148 110.793C59.8666 109.03 60.9064 106.175 62.6471 103.841C63.5345 102.666 63.8278 101.351 63.9497 99.8623C64.1972 96.788 64.003 93.6824 65.298 90.6825C65.9302 89.2256 67.0919 86.8915 64.1554 85.9242C63.5117 85.7127 63.6259 84.808 63.4507 84.1931C63.0698 82.8577 63.4317 81.3617 62.5976 79.9322C61.5806 82.1097 61.5082 84.3146 61.2226 86.4724C61.0969 87.4241 61.2226 88.6147 59.9352 88.7517C58.7164 88.8771 57.9737 88.1095 57.528 86.9542C56.313 83.8211 55.0371 80.7115 53.8183 77.5785C52.9956 75.4598 52.1919 73.3528 52.9575 70.9677C53.3384 69.7498 52.4623 69.3111 51.434 69.3425C49.7924 69.3895 48.1508 69.5265 46.5092 69.6675C45.4465 69.7576 44.9628 70.2902 45.1304 71.4925C45.3673 72.9694 45.4832 74.4642 45.477 75.961C45.317 82.6188 46.0864 89.2139 46.334 95.8442C46.5282 100.36 46.5892 104.934 47.2595 109.614ZM39.1011 106.172C39.0173 105.2 38.9525 104.213 38.8459 103.258C38.126 96.7998 37.1396 90.3692 37.0824 83.8485C37.0481 79.7481 37.1167 75.6438 36.991 71.5474C36.9148 69.1584 36.6444 69.0722 34.4963 69.8477C33.4869 70.2119 32.4852 70.7288 31.4492 70.8542C30.0514 71.0187 29.7429 71.7823 29.5867 73.0434C29.103 76.8853 28.8897 80.7977 26.7796 84.2441C26.2312 85.1409 26.0483 86.3236 25.8731 87.4084C25.6256 88.9123 25.2371 90.1107 23.386 89.7935C23.2265 89.7515 23.0573 89.7755 22.9148 89.8605C22.7723 89.9455 22.668 90.0845 22.6242 90.2478C22.4605 91.8496 22.0567 93.2398 20.4761 94.027C20.1371 94.1954 20.2894 94.8886 20.4761 95.3077C22.4072 99.2888 23.0848 103.789 22.4148 108.185C22.1519 109.916 22.8604 110.233 24.4715 110.06C28.3679 109.641 32.2681 109.191 36.195 109.199C39.1658 109.203 39.1658 109.215 39.1011 106.172ZM35.0181 24.2813C33.5174 24.6729 32.4509 25.323 31.613 25.0646C29.9638 24.5789 30.1466 25.5463 30.0895 26.5254C29.7657 31.6166 31.1331 36.3436 33.3155 40.7886C35.3685 44.9712 41.6187 46.9685 45.656 45.1514C49.7924 43.2911 50.4818 39.1163 51.8796 35.482C53.4031 31.5108 52.7785 27.2577 52.8394 23.1221C52.8965 19.1196 50.2685 16.4643 46.3416 16.3077C43.6755 16.2098 41.0474 15.8573 38.9983 13.7738C38.2898 13.0493 37.4062 13.0885 36.5073 13.3195C35.7303 13.5834 34.9306 13.7709 34.1192 13.8796C32.8547 13.9344 32.4852 14.6002 32.5081 15.7594C32.5462 17.6588 32.4852 19.5386 31.3045 21.1639C31.076 21.4733 30.8817 21.9041 31.1636 22.237C31.4454 22.5699 31.8415 22.237 32.1805 22.1078C34.107 21.4265 36.1996 21.4265 38.126 22.1078C39.0859 22.4406 39.5734 23.2435 39.1849 24.2735C38.7697 25.3661 37.9394 25.1272 37.1243 24.7317C36.7968 24.5711 36.4464 24.4615 35.696 24.1717C36.8387 25.3465 37.4443 26.2904 36.4045 27.3909C36.2933 27.5332 36.1542 27.6498 35.9963 27.733C35.8383 27.8162 35.665 27.8642 35.4878 27.8738C35.3105 27.8835 35.1333 27.8545 34.9677 27.7888C34.802 27.7231 34.6518 27.6222 34.5267 27.4927C33.426 26.5214 34.1649 25.5463 35.0181 24.2813ZM65.2409 126.301C66.0826 126.25 66.612 126.399 66.8177 125.871C66.9815 125.444 66.5511 125.185 66.3264 124.888C64.818 122.882 63.0451 121.103 61.0588 119.601C59.5353 118.473 58.2251 117.2 57.349 115.485C57.0062 114.811 56.5492 114.31 55.7417 114.31C54.123 114.353 53.0756 113.354 52.0015 112.281C50.4056 110.667 50.3332 110.691 49.1258 112.645C47.789 114.807 45.9265 115.077 44.0487 113.397C43.7147 113.098 43.34 112.85 42.9365 112.661C42.369 112.402 41.7482 112.042 41.1464 112.52C40.5446 112.998 41.0664 113.585 41.1121 114.133C41.394 117.266 41.7444 120.431 41.8739 123.587C41.9501 125.416 42.19 125.828 43.9687 125.432C46.1371 124.97 48.3548 124.802 50.5656 124.931C55.6084 125.177 60.716 124.747 65.2409 126.309V126.301ZM40.5751 2.71806C40.3582 2.69686 40.1394 2.71274 39.9276 2.76505C37.5661 3.44649 36.1836 5.40074 35.0143 7.3354C34.1078 8.85885 35.239 10.2452 37.0215 10.2296C38.305 10.2296 39.7524 10.1316 40.6018 11.1421C42.1672 13.0023 44.1325 13.2647 46.2616 13.1942C48.2422 13.1237 50.1428 13.4879 51.4606 15.0466C52.5538 16.339 53.5098 16.198 54.7514 15.5009C56.1302 14.7177 57.4976 13.8717 59.2115 14.1929C61.0321 14.5336 61.1578 14.1929 60.7351 12.4031C59.859 8.74527 58.2365 5.86286 54.4924 4.70363C54.0316 4.56264 53.6583 4.13185 53.2317 3.85379C52.718 3.46326 52.0957 3.25317 51.4568 3.25459C47.8212 3.4239 44.1782 3.24428 40.5751 2.71806ZM44.3534 107.942C44.3534 107.699 44.3534 107.57 44.3534 107.44C43.2755 94.8024 42.8566 82.1292 42.5214 69.4521C42.4757 67.6075 41.1312 68.242 40.358 68.0892C39.1773 67.8504 39.5658 69.0057 39.5962 69.5657C40.0266 77.6686 39.6343 85.7949 40.6665 93.89C41.2569 98.5112 41.6035 103.183 42.0758 107.828C42.1824 108.862 42.3119 109.978 43.5612 109.884C44.8105 109.79 44.1592 108.557 44.3534 107.942ZM40.9255 56.2111C42.2395 56.4264 43.1422 55.8703 43.7021 54.5388C44.3991 52.8822 45.7512 51.7739 47.0767 50.6734C47.7063 50.2384 48.2419 49.6744 48.6497 49.0168C48.9125 48.5116 49.2934 47.9006 48.9354 47.3758C48.486 46.7179 47.8689 47.2623 47.4119 47.4816C43.4888 49.3418 39.6686 48.3549 35.856 47.0899C35.2466 46.8902 34.6067 46.1344 34.0316 47.0234C33.5288 47.8066 34.0849 48.4058 34.6486 48.8366C36.7549 50.4384 38.0765 52.6198 38.9792 55.0792C39.3372 56.0348 39.9162 56.4264 40.9331 56.2111H40.9255ZM47.5528 57.8285C44.6315 57.8285 44.0373 58.5217 44.3496 61.3532C44.5172 62.8414 44.7572 64.3178 44.9209 65.806C45.0009 66.5501 45.2333 67.0906 46.0636 67.0162C48.0784 66.836 50.0933 66.6245 52.1043 66.4248C52.6947 66.3621 53.1784 66.0841 52.748 65.4222C51.6054 63.6599 51.2435 61.5647 50.3789 59.6887C49.781 58.4003 48.8973 57.6053 47.5604 57.8285H47.5528ZM25.0162 119.221C28.604 118.437 28.9278 119.448 29.1487 115.477C29.1777 114.893 29.2684 114.314 29.4191 113.75C29.72 112.653 29.2477 112.328 28.2765 112.391C25.8797 112.511 23.512 112.983 21.2455 113.793C20.2514 114.161 19.9962 114.697 20.0381 115.653C20.1066 117.247 22.8109 119.205 25.0162 119.221ZM36.8691 63.3622C36.8691 60.4368 35.2885 59.0543 32.4662 59.3441C31.7958 59.4107 31.4149 59.6927 31.3235 60.3819C31.0721 62.438 30.8017 64.4941 30.5618 66.5501C30.4856 67.2159 30.756 67.725 31.4721 67.7564C33.2546 67.8229 34.7781 66.9339 36.2521 66.1115C37.3262 65.5201 36.713 64.2278 36.8691 63.3622ZM30.5389 54.9892C30.3104 56.2346 31.0188 56.9669 32.6833 56.8102C33.0641 56.775 33.445 56.8925 33.8259 56.8455C34.721 56.728 35.8446 57.9068 36.4197 56.8729C36.9948 55.839 36.0388 54.6759 35.5094 53.6694C35.2529 53.1473 34.889 52.689 34.4429 52.3261C33.765 51.8169 33.4412 50.5206 32.3748 50.9123C31.3083 51.3039 30.9503 52.4788 30.6798 53.5675C30.6086 54.0385 30.5616 54.5131 30.5389 54.9892ZM35.2923 117.392C35.2923 117.913 35.2923 118.175 35.2923 118.434C35.1856 119.757 35.6351 120.537 37.0596 120.56C38.4841 120.584 38.8611 119.875 38.9449 118.528C39.0706 116.526 38.4612 114.693 38.0613 112.802C37.9508 112.281 37.6804 111.823 37.0405 111.882C36.9131 111.88 36.7867 111.906 36.669 111.956C36.5512 112.006 36.4446 112.08 36.3553 112.174C36.2661 112.268 36.1961 112.379 36.1496 112.501C36.1031 112.623 36.0809 112.753 36.0845 112.884C36.0122 114.513 35.1171 115.99 35.2923 117.392ZM67.8385 106.97C67.3928 106.226 67.6975 105.157 66.6958 104.813C65.8388 104.523 65.1723 105.024 64.7305 105.658C64.0671 106.604 63.464 107.593 62.9251 108.619C62.5442 109.344 62.9518 109.9 63.5688 110.213C64.1858 110.526 64.8866 111.744 65.4427 111.102C66.4482 109.931 67.0348 108.392 67.8385 106.97ZM39.4363 60.5542C39.482 61.4628 39.5315 62.3675 39.5772 63.2722C39.6153 63.9889 39.7448 64.5841 40.6741 64.4197C41.4587 64.2826 42.1976 64.1925 42.0034 63.0254C41.8902 62.1898 41.8342 61.347 41.8358 60.5033C41.8358 59.677 41.6492 59.0895 40.6437 59.2384C39.8705 59.3519 39.2877 59.5947 39.4363 60.5542ZM19.1316 109.32C20.4532 105.298 20.2742 102.063 18.644 98.7462C18.8193 102.486 18.9754 105.901 19.1316 109.32Z" fill="#333333"/>
<path d="M46.5968 25.3308C45.3133 25.7224 45.3285 26.5644 45.4809 27.4182C45.7246 28.7536 45.7132 30.1322 46.2122 31.4285C46.5098 32.2319 46.4893 33.1233 46.155 33.9114C45.9227 34.4989 45.5304 34.9101 44.8677 34.8631C44.5766 34.8535 44.2992 34.7339 44.0884 34.5273C43.8776 34.3207 43.7483 34.0415 43.725 33.743C43.4013 31.311 42.7538 28.9299 42.9633 26.4273C43.1651 24.0071 44.4525 22.5972 46.833 22.511C48.0346 22.4934 49.2362 22.5444 50.4323 22.6638C51.236 22.7303 51.9558 23.0828 52.0891 23.9914C52.2224 24.9 51.6397 25.4365 50.8437 25.6793C50.2876 25.8516 49.7886 26.0005 49.5449 26.6584C49.1145 27.802 48.486 28.8946 47.0577 28.3738C45.5113 27.8255 46.3988 26.5801 46.5968 25.3308Z" fill="#333333"/>
<path d="M41.9157 40.5613C40.2703 40.9138 38.9105 39.7781 37.3451 39.6136C36.7205 39.547 36.4005 38.9713 36.4691 38.3016C36.499 38.0385 36.6195 37.7951 36.8088 37.6155C36.9982 37.4359 37.2438 37.332 37.5013 37.3225C40.4645 36.8252 43.4278 37.0288 46.3872 37.346C46.5163 37.351 46.6431 37.3825 46.7602 37.4387C46.8773 37.4949 46.9822 37.5746 47.0688 37.6731C47.1555 37.7717 47.222 37.8871 47.2646 38.0125C47.3071 38.138 47.3248 38.2709 47.3165 38.4034C47.3243 38.7022 47.2326 38.9947 47.0567 39.2325C46.8808 39.4704 46.6311 39.6394 46.3491 39.7115C44.8942 40.1188 43.5192 40.9647 41.9157 40.5613Z" fill="#333333"/>
</g>
<defs>
<clipPath id="clip0_22_28">
<rect width="85.5798" height="137.204" fill="white"/>
</clipPath>
</defs>
</svg>

