<svg width="530" height="160" viewBox="0 0 530 160" fill="none" xmlns="http://www.w3.org/2000/svg">
<path d="M7 76V6H39C45.4 6 50.9 7.03333 55.5 9.1C60.1667 11.1667 63.7667 14.1667 66.3 18.1C68.8333 21.9667 70.1 26.5667 70.1 31.9C70.1 37.1667 68.8333 41.7333 66.3 45.6C63.7667 49.4667 60.1667 52.4667 55.5 54.6C50.9 56.6667 45.4 57.7 39 57.7H18L26.8 49.1V76H7ZM26.8 51.2L18 42.1H37.8C41.9333 42.1 45 41.2 47 39.4C49.0667 37.6 50.1 35.1 50.1 31.9C50.1 28.6333 49.0667 26.1 47 24.3C45 22.5 41.9333 21.6 37.8 21.6H18L26.8 12.5V51.2ZM105.956 76.9C100.023 76.9 94.7563 75.7 90.1563 73.3C85.5563 70.9 81.9229 67.6 79.2562 63.4C76.6563 59.1333 75.3563 54.2667 75.3563 48.8C75.3563 43.3333 76.6563 38.5 79.2562 34.3C81.9229 30.1 85.5563 26.8333 90.1563 24.5C94.7563 22.1 100.023 20.9 105.956 20.9C111.89 20.9 117.156 22.1 121.756 24.5C126.423 26.8333 130.056 30.1 132.656 34.3C135.256 38.5 136.556 43.3333 136.556 48.8C136.556 54.2667 135.256 59.1333 132.656 63.4C130.056 67.6 126.423 70.9 121.756 73.3C117.156 75.7 111.89 76.9 105.956 76.9ZM105.956 61.8C108.156 61.8 110.09 61.3 111.756 60.3C113.49 59.3 114.856 57.8333 115.856 55.9C116.856 53.9 117.356 51.5333 117.356 48.8C117.356 46.0667 116.856 43.7667 115.856 41.9C114.856 39.9667 113.49 38.5 111.756 37.5C110.09 36.5 108.156 36 105.956 36C103.823 36 101.89 36.5 100.156 37.5C98.4896 38.5 97.1229 39.9667 96.0563 41.9C95.0563 43.7667 94.5563 46.0667 94.5563 48.8C94.5563 51.5333 95.0563 53.9 96.0563 55.9C97.1229 57.8333 98.4896 59.3 100.156 60.3C101.89 61.3 103.823 61.8 105.956 61.8ZM156.793 76L137.493 21.8H155.493L170.793 67.1H162.193L178.093 21.8H194.293L209.593 67.1H201.193L216.993 21.8H233.693L214.393 76H195.993L182.993 38.5H188.593L175.193 76H156.793ZM266.434 76.9C260.034 76.9 254.434 75.7 249.634 73.3C244.9 70.8333 241.2 67.5 238.534 63.3C235.934 59.0333 234.634 54.2 234.634 48.8C234.634 43.4 235.9 38.6 238.434 34.4C241.034 30.1333 244.6 26.8333 249.134 24.5C253.667 22.1 258.767 20.9 264.434 20.9C269.767 20.9 274.634 22 279.034 24.2C283.434 26.3333 286.934 29.5 289.534 33.7C292.134 37.9 293.434 43 293.434 49C293.434 49.6667 293.4 50.4333 293.334 51.3C293.267 52.1667 293.2 52.9667 293.134 53.7H250.234V43.7H283.034L275.834 46.5C275.9 44.0333 275.434 41.9 274.434 40.1C273.5 38.3 272.167 36.9 270.434 35.9C268.767 34.9 266.8 34.4 264.534 34.4C262.267 34.4 260.267 34.9 258.534 35.9C256.867 36.9 255.567 38.3333 254.634 40.2C253.7 42 253.234 44.1333 253.234 46.6V49.5C253.234 52.1667 253.767 54.4667 254.834 56.4C255.967 58.3333 257.567 59.8333 259.634 60.9C261.7 61.9 264.167 62.4 267.034 62.4C269.7 62.4 271.967 62.0333 273.834 61.3C275.767 60.5 277.667 59.3 279.534 57.7L289.534 68.1C286.934 70.9667 283.734 73.1667 279.934 74.7C276.134 76.1667 271.634 76.9 266.434 76.9ZM302.194 76V21.8H320.294V37.6L317.594 33.1C319.194 29.0333 321.794 26 325.394 24C328.994 21.9333 333.36 20.9 338.494 20.9V38C337.627 37.8667 336.86 37.8 336.194 37.8C335.594 37.7333 334.927 37.7 334.194 37.7C330.327 37.7 327.194 38.7667 324.794 40.9C322.394 42.9667 321.194 46.3667 321.194 51.1V76H302.194Z" fill="#E8B642"/>
<path d="M360.41 76.54C356.85 76.54 353.69 75.82 350.93 74.38C348.17 72.94 345.99 70.96 344.39 68.44C342.83 65.88 342.05 62.96 342.05 59.68C342.05 56.4 342.83 53.5 344.39 50.98C345.99 48.46 348.17 46.5 350.93 45.1C353.69 43.66 356.85 42.94 360.41 42.94C363.97 42.94 367.13 43.66 369.89 45.1C372.69 46.5 374.87 48.46 376.43 50.98C377.99 53.5 378.77 56.4 378.77 59.68C378.77 62.96 377.99 65.88 376.43 68.44C374.87 70.96 372.69 72.94 369.89 74.38C367.13 75.82 363.97 76.54 360.41 76.54ZM360.41 67.48C361.73 67.48 362.89 67.18 363.89 66.58C364.93 65.98 365.75 65.1 366.35 63.94C366.95 62.74 367.25 61.32 367.25 59.68C367.25 58.04 366.95 56.66 366.35 55.54C365.75 54.38 364.93 53.5 363.89 52.9C362.89 52.3 361.73 52 360.41 52C359.13 52 357.97 52.3 356.93 52.9C355.93 53.5 355.11 54.38 354.47 55.54C353.87 56.66 353.57 58.04 353.57 59.68C353.57 61.32 353.87 62.74 354.47 63.94C355.11 65.1 355.93 65.98 356.93 66.58C357.97 67.18 359.13 67.48 360.41 67.48ZM385.371 76V43.84C385.371 39.92 386.531 36.8 388.851 34.48C391.211 32.12 394.571 30.94 398.931 30.94C400.331 30.94 401.711 31.08 403.071 31.36C404.431 31.64 405.571 32.06 406.491 32.62L403.671 40.66C403.191 40.38 402.651 40.16 402.051 40C401.451 39.8 400.851 39.7 400.251 39.7C399.051 39.7 398.111 40.06 397.431 40.78C396.791 41.46 396.471 42.52 396.471 43.96V46.3L396.771 51.04V76H385.371ZM380.631 53.2V44.68H404.211V53.2H380.631ZM440.407 76.54C436.247 76.54 433.007 75.52 430.687 73.48C428.367 71.4 427.207 68.28 427.207 64.12V36.22H438.607V64C438.607 65.16 438.927 66.08 439.567 66.76C440.207 67.4 441.027 67.72 442.027 67.72C443.387 67.72 444.547 67.38 445.507 66.7L448.327 74.68C447.367 75.32 446.187 75.78 444.787 76.06C443.387 76.38 441.927 76.54 440.407 76.54ZM422.467 53.2V44.68H446.047V53.2H422.467ZM473.903 42.94C476.423 42.94 478.703 43.46 480.742 44.5C482.783 45.5 484.383 47.06 485.543 49.18C486.743 51.3 487.343 54.04 487.343 57.4V76H475.943V59.26C475.943 56.94 475.463 55.26 474.503 54.22C473.583 53.14 472.283 52.6 470.603 52.6C469.403 52.6 468.303 52.88 467.303 53.44C466.303 53.96 465.523 54.78 464.963 55.9C464.403 57.02 464.123 58.48 464.123 60.28V76H452.723V31.48H464.123V52.72L461.483 50.02C462.723 47.66 464.423 45.9 466.583 44.74C468.743 43.54 471.183 42.94 473.903 42.94ZM511.95 76.54C508.11 76.54 504.75 75.82 501.87 74.38C499.03 72.9 496.81 70.9 495.21 68.38C493.65 65.82 492.87 62.92 492.87 59.68C492.87 56.44 493.63 53.56 495.15 51.04C496.71 48.48 498.85 46.5 501.57 45.1C504.29 43.66 507.35 42.94 510.75 42.94C513.95 42.94 516.87 43.6 519.51 44.92C522.15 46.2 524.25 48.1 525.81 50.62C527.37 53.14 528.15 56.2 528.15 59.8C528.15 60.2 528.13 60.66 528.09 61.18C528.05 61.7 528.01 62.18 527.97 62.62H502.23V56.62H521.91L517.59 58.3C517.63 56.82 517.35 55.54 516.75 54.46C516.19 53.38 515.39 52.54 514.35 51.94C513.35 51.34 512.17 51.04 510.81 51.04C509.45 51.04 508.25 51.34 507.21 51.94C506.21 52.54 505.43 53.4 504.87 54.52C504.31 55.6 504.03 56.88 504.03 58.36V60.1C504.03 61.7 504.35 63.08 504.99 64.24C505.67 65.4 506.63 66.3 507.87 66.94C509.11 67.54 510.59 67.84 512.31 67.84C513.91 67.84 515.27 67.62 516.39 67.18C517.55 66.7 518.69 65.98 519.81 65.02L525.81 71.26C524.25 72.98 522.33 74.3 520.05 75.22C517.77 76.1 515.07 76.54 511.95 76.54Z" fill="#333333"/>
<path d="M31.6 157.4C25.8667 157.4 20.3333 156.7 15 155.3C9.73333 153.833 5.43333 151.967 2.1 149.7L8.6 135.1C11.7333 137.1 15.3333 138.767 19.4 140.1C23.5333 141.367 27.6333 142 31.7 142C34.4333 142 36.6333 141.767 38.3 141.3C39.9667 140.767 41.1667 140.1 41.9 139.3C42.7 138.433 43.1 137.433 43.1 136.3C43.1 134.7 42.3667 133.433 40.9 132.5C39.4333 131.567 37.5333 130.8 35.2 130.2C32.8667 129.6 30.2667 129 27.4 128.4C24.6 127.8 21.7667 127.033 18.9 126.1C16.1 125.167 13.5333 123.967 11.2 122.5C8.86667 120.967 6.96667 119 5.5 116.6C4.03333 114.133 3.3 111.033 3.3 107.3C3.3 103.1 4.43333 99.3 6.7 95.9C9.03333 92.5 12.5 89.7667 17.1 87.7C21.7 85.6333 27.4333 84.6 34.3 84.6C38.9 84.6 43.4 85.1333 47.8 86.2C52.2667 87.2 56.2333 88.7 59.7 90.7L53.6 105.4C50.2667 103.6 46.9667 102.267 43.7 101.4C40.4333 100.467 37.2667 100 34.2 100C31.4667 100 29.2667 100.3 27.6 100.9C25.9333 101.433 24.7333 102.167 24 103.1C23.2667 104.033 22.9 105.1 22.9 106.3C22.9 107.833 23.6 109.067 25 110C26.4667 110.867 28.3667 111.6 30.7 112.2C33.1 112.733 35.7 113.3 38.5 113.9C41.3667 114.5 44.2 115.267 47 116.2C49.8667 117.067 52.4667 118.267 54.8 119.8C57.1333 121.267 59 123.233 60.4 125.7C61.8667 128.1 62.6 131.133 62.6 134.8C62.6 138.867 61.4333 142.633 59.1 146.1C56.8333 149.5 53.4 152.233 48.8 154.3C44.2667 156.367 38.5333 157.4 31.6 157.4ZM95.0461 156.9C88.1128 156.9 82.7128 155.2 78.8461 151.8C74.9794 148.333 73.0461 143.133 73.0461 136.2V89.7H92.0461V136C92.0461 137.933 92.5794 139.467 93.6461 140.6C94.7128 141.667 96.0794 142.2 97.7461 142.2C100.013 142.2 101.946 141.633 103.546 140.5L108.246 153.8C106.646 154.867 104.679 155.633 102.346 156.1C100.013 156.633 97.5794 156.9 95.0461 156.9ZM65.1461 118V103.8H104.446V118H65.1461ZM138.373 156.9C133.973 156.9 130.006 156.033 126.473 154.3C123.006 152.567 120.273 149.867 118.273 146.2C116.339 142.467 115.373 137.767 115.373 132.1V101.8H134.373V129C134.373 133.2 135.139 136.2 136.673 138C138.273 139.8 140.506 140.7 143.373 140.7C145.239 140.7 146.939 140.267 148.473 139.4C150.006 138.533 151.239 137.167 152.173 135.3C153.106 133.367 153.573 130.9 153.573 127.9V101.8H172.573V156H154.473V140.7L157.973 145C156.106 149 153.406 152 149.873 154C146.339 155.933 142.506 156.9 138.373 156.9ZM208.411 156.9C203.478 156.9 198.978 155.767 194.911 153.5C190.911 151.167 187.711 147.933 185.311 143.8C182.911 139.6 181.711 134.6 181.711 128.8C181.711 123.067 182.911 118.133 185.311 114C187.711 109.8 190.911 106.567 194.911 104.3C198.978 102.033 203.478 100.9 208.411 100.9C213.078 100.9 217.011 101.9 220.211 103.9C223.478 105.9 225.944 108.967 227.611 113.1C229.278 117.233 230.111 122.467 230.111 128.8C230.111 135.267 229.311 140.567 227.711 144.7C226.111 148.833 223.711 151.9 220.511 153.9C217.311 155.9 213.278 156.9 208.411 156.9ZM212.411 141.8C214.544 141.8 216.444 141.3 218.111 140.3C219.844 139.3 221.211 137.833 222.211 135.9C223.211 133.9 223.711 131.533 223.711 128.8C223.711 126.067 223.211 123.767 222.211 121.9C221.211 119.967 219.844 118.5 218.111 117.5C216.444 116.5 214.544 116 212.411 116C210.211 116 208.244 116.5 206.511 117.5C204.844 118.5 203.511 119.967 202.511 121.9C201.511 123.767 201.011 126.067 201.011 128.8C201.011 131.533 201.511 133.9 202.511 135.9C203.511 137.833 204.844 139.3 206.511 140.3C208.244 141.3 210.211 141.8 212.411 141.8ZM224.311 156V146.7L224.411 128.8L223.411 110.9V81.8H242.411V156H224.311ZM283.035 156.9C276.635 156.9 271.035 155.7 266.235 153.3C261.502 150.833 257.802 147.5 255.135 143.3C252.535 139.033 251.235 134.2 251.235 128.8C251.235 123.4 252.502 118.6 255.035 114.4C257.635 110.133 261.202 106.833 265.735 104.5C270.268 102.1 275.368 100.9 281.035 100.9C286.368 100.9 291.235 102 295.635 104.2C300.035 106.333 303.535 109.5 306.135 113.7C308.735 117.9 310.035 123 310.035 129C310.035 129.667 310.002 130.433 309.935 131.3C309.868 132.167 309.802 132.967 309.735 133.7H266.835V123.7H299.635L292.435 126.5C292.502 124.033 292.035 121.9 291.035 120.1C290.102 118.3 288.768 116.9 287.035 115.9C285.368 114.9 283.402 114.4 281.135 114.4C278.868 114.4 276.868 114.9 275.135 115.9C273.468 116.9 272.168 118.333 271.235 120.2C270.302 122 269.835 124.133 269.835 126.6V129.5C269.835 132.167 270.368 134.467 271.435 136.4C272.568 138.333 274.168 139.833 276.235 140.9C278.302 141.9 280.768 142.4 283.635 142.4C286.302 142.4 288.568 142.033 290.435 141.3C292.368 140.5 294.268 139.3 296.135 137.7L306.135 148.1C303.535 150.967 300.335 153.167 296.535 154.7C292.735 156.167 288.235 156.9 283.035 156.9ZM354.095 100.9C358.295 100.9 362.095 101.767 365.495 103.5C368.895 105.167 371.562 107.767 373.495 111.3C375.495 114.833 376.495 119.4 376.495 125V156H357.495V128.1C357.495 124.233 356.695 121.433 355.095 119.7C353.562 117.9 351.395 117 348.595 117C346.595 117 344.762 117.467 343.095 118.4C341.429 119.267 340.129 120.633 339.195 122.5C338.262 124.367 337.795 126.8 337.795 129.8V156H318.795V101.8H336.895V117.2L333.395 112.7C335.462 108.767 338.295 105.833 341.895 103.9C345.495 101.9 349.562 100.9 354.095 100.9ZM412.624 156.9C405.691 156.9 400.291 155.2 396.424 151.8C392.558 148.333 390.624 143.133 390.624 136.2V89.7H409.624V136C409.624 137.933 410.158 139.467 411.224 140.6C412.291 141.667 413.658 142.2 415.324 142.2C417.591 142.2 419.524 141.633 421.124 140.5L425.824 153.8C424.224 154.867 422.258 155.633 419.924 156.1C417.591 156.633 415.158 156.9 412.624 156.9ZM382.724 118V103.8H422.024V118H382.724ZM452.851 156.9C448.251 156.9 443.751 156.367 439.351 155.3C435.017 154.233 431.517 152.9 428.851 151.3L434.551 138.3C437.084 139.833 440.051 141.067 443.451 142C446.851 142.867 450.184 143.3 453.451 143.3C456.651 143.3 458.851 142.967 460.051 142.3C461.317 141.633 461.951 140.733 461.951 139.6C461.951 138.533 461.351 137.767 460.151 137.3C459.017 136.767 457.484 136.367 455.551 136.1C453.684 135.833 451.617 135.533 449.351 135.2C447.084 134.867 444.784 134.433 442.451 133.9C440.184 133.3 438.084 132.433 436.151 131.3C434.284 130.1 432.784 128.5 431.651 126.5C430.517 124.5 429.951 121.967 429.951 118.9C429.951 115.433 430.951 112.367 432.951 109.7C435.017 106.967 438.017 104.833 441.951 103.3C445.884 101.7 450.684 100.9 456.351 100.9C460.151 100.9 463.984 101.3 467.851 102.1C471.784 102.833 475.084 103.967 477.751 105.5L472.051 118.4C469.384 116.867 466.717 115.833 464.051 115.3C461.384 114.7 458.851 114.4 456.451 114.4C453.251 114.4 450.984 114.767 449.651 115.5C448.384 116.233 447.751 117.133 447.751 118.2C447.751 119.267 448.317 120.1 449.451 120.7C450.584 121.233 452.084 121.667 453.951 122C455.884 122.267 457.984 122.567 460.251 122.9C462.517 123.167 464.784 123.6 467.051 124.2C469.384 124.8 471.484 125.7 473.351 126.9C475.284 128.033 476.817 129.6 477.951 131.6C479.084 133.533 479.651 136.033 479.651 139.1C479.651 142.433 478.617 145.433 476.551 148.1C474.551 150.767 471.551 152.9 467.551 154.5C463.617 156.1 458.717 156.9 452.851 156.9Z" fill="#3A51D4"/>
</svg>
