<svg width="142" height="130" viewBox="0 0 142 130" fill="none" xmlns="http://www.w3.org/2000/svg">
<g clip-path="url(#clip0_22_10)">
<path d="M48.5658 108.453C48.5658 107.353 48.5658 106.253 48.5658 105.153C48.5658 103.643 49.0348 102.402 50.3905 101.69C50.8149 101.491 51.1612 101.149 51.3727 100.721C51.5841 100.292 51.6482 99.8022 51.5544 99.3311C50.9789 94.2885 52.1171 89.4176 52.9101 84.5114C52.9996 83.9658 53.426 83.2837 52.8334 82.8833C52.2408 82.4829 51.759 83.0549 51.2943 83.3541C49.1627 84.749 46.6047 84.1594 44.294 84.9514C41.8512 85.7918 39.4339 86.5399 37.6007 88.5507C37.0504 89.1906 36.3171 89.6331 35.507 89.8142C34.6969 89.9954 33.8519 89.9058 33.0944 89.5584C30.3915 88.4847 27.7568 88.7575 24.9473 89.2064C23.759 89.399 22.5441 89.3162 21.3908 88.9638C20.2374 88.6114 19.1746 87.9983 18.2795 87.1691C17.6812 86.5444 17.0338 85.9719 16.344 85.4574C14.2123 84.0802 12.7244 82.5621 11.8675 79.7768C10.4521 75.1655 8.80222 70.6025 8.45689 65.8063C8.14993 61.5162 6.43183 57.578 6.19309 53.3275C6.10069 52.8228 6.05784 52.3098 6.06519 51.7962C7.38681 43.0091 4.37267 34.8732 2.57356 26.5525C1.44806 21.1843 0.092334 15.6973 1.41395 10.272C2.03639 7.71106 2.91036 4.99177 4.33856 2.66848C5.70281 0.468405 10.4862 -0.0860152 12.4814 1.51124C12.7527 1.73272 13.0583 1.90529 13.3852 2.02166C16.0711 2.90169 16.506 3.52651 16.101 6.38661C15.7452 8.85419 15.7151 11.3602 16.0114 13.8361C16.1308 14.8041 16.1606 15.6401 17.6869 14.9669C20.2235 13.8493 22.4916 15.1473 22.4746 18.047C22.449 23.4724 23.2803 29.1442 19.2473 33.716C18.7522 34.2988 18.3823 34.9832 18.1618 35.7241C17.9414 36.4651 17.8754 37.2458 17.9683 38.0149C18.2752 41.9751 19.1492 45.7812 20.0999 49.6314C21.3192 54.6123 24.0989 58.8277 25.6635 63.5974C26.0898 64.9571 26.9425 65.4719 28.2726 65.0759C32.9622 63.6855 37.8522 63.021 41.864 59.7253C43.5141 58.4439 45.352 57.4427 47.3082 56.7596C49.7156 55.8774 51.9655 54.5915 53.9674 52.9535C56.9986 50.4454 60.5115 48.8569 64.1055 47.4533C65.7767 46.8021 67.5161 46.4632 69.3323 46.9473C70.8116 47.3433 71.076 46.8329 70.6113 45.372C69.9377 43.2203 69.4346 41.0026 68.9059 38.7982C68.7295 37.7198 68.1625 36.7509 67.32 36.0877C66.041 35.102 66.4673 33.6764 67.1154 32.4971C68.2409 30.4467 68.8207 28.4886 66.9789 26.5437C66.8749 26.4407 66.8124 26.3008 66.8041 26.1521C67.0472 23.0104 65.8492 20.1503 65.2822 17.1626C64.664 13.9065 67.1793 11.2972 68.0746 8.31828C68.4668 6.99824 69.895 6.46142 71.0589 5.9862C73.9622 4.78496 76.7461 3.34611 79.5855 1.99526C82.6721 0.538807 85.682 0.675212 88.1973 3.34611C89.0201 4.22614 89.5871 4.22614 90.4995 3.42091C92.9466 1.29563 94.7329 1.81485 95.7135 4.85536C96.0716 5.9774 96.6173 6.57142 97.8451 6.52742C98.3898 6.47731 98.9331 6.63839 99.3689 6.97925C99.8048 7.32011 100.102 7.81631 100.203 8.37109C100.71 10.492 101.951 11.9132 103.707 13.0969C105.958 14.6193 106.265 15.6929 104.986 18.069C103.23 21.3911 102.39 24.8233 102.778 28.6294C103.029 31.0759 102.168 33.2408 100.736 35.168L100.203 35.8501C97.3548 39.8674 97.3506 40.1534 99.8915 44.1752C101.016 45.8588 102.052 47.6037 102.995 49.4025C103.848 51.1406 105.958 51.1626 107.51 51.4046C111.821 52.0016 115.833 54.006 118.961 57.1248C119.989 58.0291 121.147 58.7638 122.393 59.3029C124.913 60.5613 126.878 62.3038 127.748 65.1991C129.027 69.4805 131.158 73.3702 133.213 77.3039C134.671 80.1156 135.524 83.0241 132.996 85.849C132.207 86.7291 132.263 87.7103 133.132 88.5815C133.414 88.9109 133.714 89.2224 134.032 89.5144C138.031 92.6825 139.574 96.779 138.47 101.892C138.319 102.842 138.487 103.817 138.947 104.655C139.351 105.594 139.806 106.508 140.312 107.392C142.443 110.956 142.537 114.569 140.644 118.247C139.932 119.625 139.335 121.024 139.463 122.626C139.647 124.953 138.38 126.251 136.568 127.29C130.77 130.616 124.806 130.713 118.705 128.368C117.161 127.828 115.569 127.446 113.952 127.228C109.71 126.502 105.464 125.732 101.264 124.777C96.127 123.611 90.9045 123.052 85.7416 122.076C80.3784 121.059 74.9513 120.381 69.6776 118.907C68.1836 118.431 66.6134 118.262 65.0562 118.41C61.8971 118.802 59.0876 117.741 56.3335 116.21C54.5728 115.242 52.7865 113.781 50.4502 114.732C49.491 115.128 48.9964 114.344 48.8898 113.451C48.6937 111.779 48.5786 110.103 48.4294 108.426L48.5658 108.453ZM98.7404 48.5841C97.6447 53.6135 95.722 57.7276 93.5733 61.7538C93.356 62.219 93.2327 62.725 93.2109 63.241C93.066 65.2695 93.4923 67.0472 95.5472 67.8656C96.5277 68.2572 96.9839 69.0052 96.7068 69.9117C95.7433 73.0534 96.2464 76.5119 94.7542 79.5304C93.3942 82.2937 92.7292 85.2946 92.1707 88.3307C91.7699 90.5044 92.3796 91.3008 94.3961 90.698C98.9791 89.3252 103.652 89.5144 108.316 89.7212C109.795 89.7872 110.388 89.4792 110.375 87.8687C110.336 83.9086 110.801 79.9836 110.469 76.0279C110.427 74.7102 110.508 73.3913 110.712 72.0898C110.835 71.0117 111.279 69.9601 112.472 69.9645C113.862 69.9645 113.82 71.2185 113.858 72.2482C114.122 79.4116 113.325 86.5487 113.317 93.7121C113.241 95.7433 113.384 97.7769 113.743 99.7755C114.131 101.628 114.762 101.764 116.348 101.206C121.464 99.3971 126.673 98.6403 132.02 100.018C133.073 100.29 134.335 100.598 134.062 102.024C133.789 103.45 132.544 103.406 131.461 103.067C128.451 102.125 125.403 102.372 122.385 102.803C119.567 103.208 116.795 103.92 114.391 105.72C116.096 105.918 117.959 106.693 119.289 105.531C120.854 104.162 122.372 104.338 124.06 104.651C127.756 105.359 131.354 106.473 134.961 107.542C135.43 107.683 135.955 108.03 136.355 107.595C136.871 107.031 136.355 106.481 136.087 106.015C135.597 105.201 135.287 104.286 135.179 103.335C135.071 102.383 135.169 101.419 135.464 100.51C136.283 97.9935 135.596 95.9078 133.883 94.0817C132.945 93.0829 131.981 92.1105 131.035 91.1248C128.839 88.8367 128.477 86.5575 130.425 84.0846C131.777 82.3597 131.534 80.9825 130.613 79.3236C128.357 75.3346 126.454 71.1433 124.93 66.8008C124.657 65.9955 124.452 65.1199 123.651 64.5391C123.079 65.1507 123.079 66.2991 122.043 66.4003C120.249 66.594 119.132 67.7776 118.164 69.19C117.759 69.7797 117.243 70.1581 116.535 69.8061C116.205 69.6544 115.938 69.3865 115.782 69.0504C115.626 68.7143 115.591 68.3317 115.683 67.9712C115.917 66.8825 116.559 65.9335 117.469 65.3311C118.671 64.4511 119.933 63.6415 121.344 62.691C119.405 61.2698 117.345 60.2445 115.768 58.5681C113.965 56.6584 111.714 55.686 109.245 55.0919C107.86 54.778 106.5 54.3603 105.174 53.8423C103.468 53.1427 102.961 53.6971 102.791 55.5144C102.416 60.0385 101.775 64.5349 100.872 68.9788C100.659 69.9865 100.241 71.1173 98.9152 70.7697C97.73 70.4617 97.5253 69.4497 97.8195 68.3144C99.0687 63.3994 99.3202 58.3349 99.981 53.3539C100.133 52.5137 100.1 51.6491 99.8851 50.8237C99.6704 49.9983 99.2793 49.233 98.7404 48.5841ZM53.3876 58.4229C53.7159 61.9034 55.6344 64.0375 56.6831 66.5588C56.9517 67.1968 57.4846 66.7964 57.9621 66.6336C59.3221 66.1627 60.0937 66.7392 59.9317 68.2088C59.7233 70.0979 59.3871 71.9696 58.9256 73.8102C57.6466 78.6812 55.9413 83.4466 55.3317 88.4803C54.9053 92.0005 53.7841 95.4942 54.7817 99.1287C55.0631 100.145 55.4425 100.937 56.4358 100.598C59.9275 99.4015 63.0908 99.9119 66.1391 101.998C67.7506 103.102 68.3602 102.367 68.697 100.466C69.4474 96.4446 70.3299 92.3921 72.2867 88.7839C73.3444 86.9595 73.8685 84.8585 73.7959 82.7337C73.732 81.2685 73.749 79.7988 73.6766 78.3336C73.5657 76.0543 73.9878 73.9554 75.4884 72.1733C76.3709 71.1261 76.452 69.8853 76.1152 68.6532C75.3222 65.7007 74.4312 62.7746 73.6126 59.8309C73.3611 58.9113 72.8196 59.2897 72.2739 59.3909C68.9784 59.9013 67.9467 58.9201 68.2451 55.5012C68.3365 54.48 68.5119 53.4687 68.7695 52.4783C69.3962 50.0142 69.0083 49.539 66.5483 49.9526C66.0613 50.058 65.5835 50.2052 65.1202 50.3926C61.359 51.7399 57.8524 53.7497 54.7561 56.3328C53.8395 57.0808 53.1361 57.6968 53.3876 58.4229ZM93.2109 73.9158L92.7846 73.7354C91.544 75.6759 90.3417 77.6471 89.0499 79.5524C88.1973 80.7933 87.1229 81.7173 85.5072 81.5897C84.8293 81.5369 84.2282 81.3565 84.0491 80.5688C83.9763 80.281 83.9998 79.9761 84.1159 79.7038C84.2319 79.4314 84.4338 79.2075 84.6886 79.0684C87.9543 77.2247 89.1778 73.7134 91.0835 70.7609C91.8083 69.6521 91.6164 68.5872 91.0238 67.4608C90.3929 66.2639 89.7918 66.4355 89.1437 67.364C88.4403 68.376 87.788 69.4233 87.1016 70.4441C86.509 71.3241 85.8226 72.2526 84.7057 71.3593C83.6697 70.5453 84.1727 69.5993 84.7057 68.6356C85.844 66.5368 87.5535 64.9043 89.1736 62.999C84.484 63.0606 83.0728 63.5842 79.3979 60.5349C78.2084 59.5449 77.7309 60.2093 77.7352 61.4502C77.7798 63.1345 78.0776 64.8015 78.6177 66.3915C79.3893 68.8644 79.9947 71.3593 78.3747 73.7662C78.1232 74.1402 77.8631 74.6462 78.3193 74.9279C80.4253 76.1599 79.8541 78.25 79.7944 80.0496C79.6452 84.639 79.9137 89.1096 82.0113 93.2941C82.3287 94.1067 82.5672 94.9498 82.7232 95.811C82.9748 96.7438 82.9407 97.6327 81.926 98.0111C80.9113 98.3895 80.306 97.6371 79.9436 96.8142C79.5301 95.807 79.1659 94.779 78.8522 93.7341C78.1658 91.622 77.4922 89.5012 76.7973 87.3275C73.587 91.8552 72.6704 97.1222 71.4469 102.288C71.1229 103.648 71.6643 104.299 72.9347 104.655C75.3307 105.324 77.6755 106.173 80.0672 106.855C82.3371 107.455 84.6622 107.805 87.0036 107.898C88.5511 107.977 89.1352 107.564 88.7089 105.698C87.9244 102.279 87.5024 98.7239 87.9031 95.2478C88.5682 89.4484 89.4677 83.6666 92.0087 78.3072C92.678 76.9519 92.8357 75.3943 93.2109 73.9158ZM69.8481 26.5525C72.5084 27.1378 72.9134 27.9254 71.9499 30.1035C71.6259 30.8339 71.2039 31.5203 70.8159 32.2155C70.5772 32.6556 70.0911 33.0956 70.4663 33.584C70.8415 34.0724 71.3829 33.87 71.8732 33.8392C72.2228 33.8392 72.5724 33.7336 72.9262 33.6808C73.7789 33.5576 74.5505 33.7336 74.7765 34.7016C75.0024 35.6697 74.4823 36.2505 73.6595 36.5673C72.9433 36.8401 71.9286 36.8885 72.2526 38.0369C72.5511 39.1062 73.5316 38.6354 74.2734 38.6882C74.6287 38.7108 74.9854 38.6872 75.335 38.6178C76.3923 38.4198 77.6329 38.0369 78.0933 39.3966C78.622 40.9454 77.3217 41.5615 76.2686 42.1775C75.8977 42.3887 75.4799 42.5031 75.0962 42.6967C74.4866 43.0003 73.2417 42.5031 73.425 43.8099C73.5785 44.9232 73.7277 46.2124 75.1005 46.6128C75.7784 46.8153 76.4647 47.1057 77.181 46.8769C80.0885 45.9396 83.0856 45.2004 85.7075 43.5547C87.3191 42.5427 88.76 41.2623 90.3289 40.1666C92.1579 38.8862 91.8936 36.5541 92.0342 34.5256C92.0982 33.6456 92.2858 32.8624 93.2706 32.7656C94.2554 32.6688 94.6988 33.2408 94.8224 34.1824C94.8992 34.7676 94.9503 35.432 95.7348 35.41C97.0564 35.3748 99.2264 31.7667 98.864 30.2047C97.9261 30.8823 97.5595 32.9636 95.9266 31.8591C94.2938 30.7547 95.074 29.1266 95.5344 27.6702C96.225 25.4217 97.7172 26.0025 99.2648 26.8781C99.333 25.3733 99.4907 23.8992 97.7001 24.3613C95.7433 24.8673 93.6671 25.4745 92.6652 27.6482C92.209 28.6294 91.463 29.1222 90.4483 28.9682C88.986 28.7658 89.0201 27.547 89.0329 26.4337C89.1182 23.3448 88.2655 20.8323 85.1235 19.6795C84.6837 19.5024 84.2999 19.2031 84.0148 18.8148C83.7296 18.4265 83.5541 17.9643 83.5077 17.4794C83.1922 14.7381 81.4869 14.4741 79.3766 14.7469C78.3193 14.8789 77.2449 14.9757 76.2047 15.1253C72.5979 15.6445 70.2361 18.465 70.2361 22.2184C70.2325 22.4358 70.2754 22.6515 70.3616 22.8499C70.4478 23.0484 70.5752 23.2249 70.7349 23.3668C72.065 24.7001 71.4724 25.6725 69.8481 26.5525ZM19.6267 18.6807L18.7399 18.5442C18.5694 20.0315 18.4713 21.532 18.2113 23.0016C18.0066 24.1368 17.7849 25.4965 16.2715 25.4569C14.758 25.4173 14.6003 24.1984 14.3999 22.9708C13.9011 19.8643 13.1465 16.8106 12.9589 13.6513C12.9291 13.1893 12.8651 12.4588 12.2555 12.4412C11.5478 12.4192 11.6245 13.1629 11.6757 13.6161C11.9229 15.7413 10.9594 16.4058 8.99406 16.903C5.19548 17.8578 4.20214 19.5431 4.96526 23.3932C5.09316 24.04 5.2168 24.7133 5.39159 25.3161C8.06041 34.1824 9.84672 43.1719 9.11344 52.5399C9.12362 53.2702 9.23708 53.9951 9.45023 54.6915C10.1366 57.9036 11.3986 61.0146 11.4625 64.3323C11.5392 68.376 12.8012 72.0853 13.9565 75.8607C14.4639 77.5283 15.3165 77.5679 16.4804 76.8287C18.245 75.7268 19.8509 74.3744 21.251 72.8114C23.0927 70.7037 23.7535 68.508 22.9094 65.5775C21.8649 61.9386 19.6352 58.8937 18.531 55.378C17.1199 50.8722 15.5467 46.3532 15.082 41.5879C14.9243 40.0126 14.5107 39.3878 13.0612 40.5142C12.2683 41.1171 11.3815 41.0995 10.8699 40.1358C10.3583 39.1722 10.8486 38.433 11.5861 37.8565C11.9444 37.6197 12.3144 37.4023 12.6946 37.2053C13.7476 36.5321 14.3999 35.9073 13.0058 34.772C12.2689 34.0832 11.6718 33.2501 11.2493 32.3211C10.823 31.5027 10.3711 30.4775 11.471 29.8086C12.4047 29.241 13.0783 29.8791 13.641 30.6095C14.0375 31.1243 14.4212 31.6523 14.8177 32.1715C15.5254 33.1044 16.0285 32.9592 16.8214 32.0835C20.4793 28.0926 18.7484 23.1512 19.6267 18.6807ZM56.1033 72.3626C56.1332 71.4825 55.7495 70.9633 55.4425 70.3825C54.0783 67.8172 52.8376 65.1771 51.337 62.7042C50.6975 61.6526 51.3839 59.6241 49.7553 59.5537C48.5914 59.4921 47.3721 60.3809 46.1955 60.8737C45.6581 61.0706 45.1544 61.3543 44.7033 61.7142C41.6806 64.4643 37.9886 65.7139 34.2156 66.792C32.8471 67.1836 31.4786 67.562 30.1101 67.9492C29.0315 68.2528 28.716 68.75 29.0656 70.0305C29.9737 73.3526 30.0419 76.6527 28.068 79.7328C27.2241 81.0901 26.5898 82.5745 26.1879 84.133C25.8553 85.3562 26.1452 85.9282 27.4669 85.8534C29.5985 85.7346 31.7301 85.6334 33.7509 86.5839C34.4544 86.9139 35.1621 86.5839 35.6822 86.0118C37.9801 83.4598 41.0411 82.3509 44.1747 81.7657C48.0116 81.0485 51.4947 80.076 54.0655 76.6087C55.0306 75.3569 55.724 73.9059 56.0991 72.3538L56.1033 72.3626ZM51.7931 110.596C51.9637 108.065 52.3602 105.755 55.1654 104.875C55.92 104.633 56.6149 104.11 57.297 104.845C57.9792 105.579 57.7234 106.38 57.3951 107.111C56.8451 108.299 56.1801 109.425 55.5789 110.587C55.272 111.176 54.8798 111.946 55.6642 112.312C58.333 113.544 60.6522 115.726 63.9136 115.392C65.9623 115.147 68.0363 115.26 70.0485 115.726C79.2146 118.032 88.5639 119.295 97.8664 120.83C99.3756 121.081 99.657 120.469 99.7764 119.101C99.9895 116.633 99.9043 114.111 100.693 111.722C101.072 110.569 100.454 110.49 99.6144 110.547C97.7087 110.679 95.7774 110.754 93.8888 110.912C89.4805 111.278 85.0084 111.194 80.7792 110.138C75.8975 108.889 71.0879 107.357 66.3736 105.549C64.4466 104.823 62.8095 103.199 60.7119 103.203C58.3064 103.287 55.9069 103.504 53.524 103.854C52.6714 103.951 51.7505 104.224 51.661 105.324C51.5203 107.049 51.0215 108.783 51.7931 110.596ZM68.5521 16.5202C69.3856 14.9728 70.6975 13.7582 72.2782 13.0705C75.7698 11.5744 79.3894 11.9748 82.9918 11.9176C85.0126 11.8824 86.006 12.934 86.2319 14.8965C86.3342 15.7765 86.347 16.7094 87.3446 17.0702C89.5104 17.8446 90.5464 19.8027 91.3479 21.6904C91.9959 23.2172 92.6268 23.0588 93.6969 22.5308C95.5515 21.62 97.4017 20.8235 99.5376 20.6563C101.46 20.5111 101.46 18.3506 102.172 17.0086C102.79 15.8426 101.571 15.5213 100.966 15.0549C99.8128 14.1875 98.8977 13.0262 98.3098 11.6844C97.9517 10.8572 97.4316 9.98594 96.4681 10.0915C94.6348 10.2896 93.7012 9.42272 93.1683 7.73746C92.7419 6.43942 92.1536 6.55822 91.4246 7.56146C90.6956 8.56469 89.8088 8.53389 88.7771 7.97947C87.7454 7.42505 86.7648 6.89263 86.0529 5.929C84.7185 4.13813 83.0941 3.85212 81.1544 4.82896C79.2146 5.80579 77.262 7.11704 75.1858 7.63186C70.4919 8.7847 69.7117 12.7668 68.5521 16.5202ZM127.061 126.748C128.912 126.77 134.138 125.34 135.162 124.368C136.632 122.96 136.159 120.817 136.799 119.088C137.468 117.257 138.747 115.651 138.781 113.579C138.802 112.259 139.092 110.71 136.897 111.647C136.283 111.907 135.652 111.594 135.068 111.286C131.107 109.196 126.806 108.36 122.478 107.625C121.161 107.401 120.615 108.092 120.858 109.425C121.251 111.581 121.596 113.75 122.086 115.885C122.564 117.732 122.626 119.668 122.265 121.543C121.251 126.216 121.353 126.383 126.004 126.762C126.358 126.77 126.716 126.748 127.061 126.748ZM94.4728 40.193C92.8954 41.6627 92.29 44.0564 90.3758 44.932C87.0334 46.4676 83.9255 48.6281 80.1653 49.1385C78.6561 49.3453 77.9526 50.353 78.3747 51.9898C78.558 52.6983 78.6987 53.4199 78.8863 54.1239C79.8413 57.7056 82.2969 59.6549 86.0529 59.8441C89.1224 59.9981 92.1835 57.8464 93.471 54.9379C95.577 50.1682 95.4875 45.2884 94.4728 40.193ZM102.837 117.574C102.739 119.739 102.56 121.86 105.178 122.379C107.796 122.898 110.319 123.334 112.907 123.699C113.508 123.787 114.472 124.298 114.762 123.343C114.971 122.648 114.404 121.952 113.815 121.495C111.351 119.576 109.88 116.919 108.623 114.098C108.12 112.967 107.659 111.819 107.113 110.71C106.931 110.346 106.638 110.054 106.279 109.88C105.919 109.706 105.515 109.659 105.127 109.746C104.768 109.786 104.435 109.958 104.188 110.23C103.942 110.502 103.798 110.857 103.784 111.229C103.468 113.394 102.556 115.462 102.837 117.574ZM91.2967 94.3149C90.6374 98.5875 91.0785 102.964 92.5757 107.005C92.6339 107.22 92.7607 107.409 92.9355 107.54C93.1103 107.672 93.3229 107.739 93.5392 107.731C95.4321 107.559 97.8451 108.013 99.1028 106.983C101.341 105.148 103.413 106.103 105.519 106.323C108.12 106.583 110.435 105.254 110.993 102.671C111.147 101.949 111.458 101.096 110.379 100.444C109.526 103.524 107.212 104.272 104.577 103.881C102.633 103.595 100.795 102.561 98.8555 102.284C94.3577 101.654 91.2242 99.7843 91.2967 94.3149ZM105.123 92.6913C102.867 93.0917 100.386 92.8585 97.9176 92.9553C96.9963 92.9691 96.086 93.1648 95.236 93.5317C94.8352 93.7121 94.3322 93.8793 94.4345 94.4117C94.7542 96.0178 94.767 97.8087 96.5959 98.6139C98.0838 99.2651 99.0729 99.0055 99.7721 97.3378C100.156 96.427 101.051 95.6922 102.219 96.1498C103.2 96.537 103.579 97.4082 103.52 98.4335C103.464 99.3663 102.692 100.515 104.372 100.77C105.864 100.994 107.045 100.695 107.531 99.0099C107.727 98.3103 108.004 97.6327 108.265 96.955C109.795 92.9597 109.629 92.7133 105.123 92.7089V92.6913ZM118.381 122.788C119.605 119.787 119.596 119.198 118.343 113.636C117.341 109.179 117.341 109.179 112.954 108.919C110.021 108.747 109.897 108.919 111.138 111.792C111.564 112.721 112.067 113.601 112.417 114.547C113.67 117.865 117.217 119.286 118.381 122.806V122.788ZM26.1367 71.6849C23.8331 75.2538 20.7204 78.1886 17.0687 80.2344C15.8153 80.9605 15.6576 81.6689 17.0986 82.2981C18.2454 82.7953 19.081 83.6974 20.0061 84.4982C21.7498 85.9766 22.449 85.8798 23.1609 83.649C23.9199 81.4482 24.82 79.302 25.8553 77.2247C26.5886 75.6187 27.1983 73.841 26.1367 71.6849ZM71.3275 54.2559C71.3872 54.9599 71.1868 55.9808 72.1801 55.6596C73.425 55.2548 75.3051 55.6288 75.5908 53.6487C75.757 52.4607 75.2028 51.4486 73.8386 51.3826C71.8604 51.299 71.7325 52.9535 71.336 54.2735L71.3275 54.2559Z" fill="#333333"/>
<path d="M128.05 80.8151C128.321 80.73 128.612 80.7491 128.87 80.8688C129.128 80.9886 129.335 81.2009 129.453 81.4663C129.606 81.7595 129.657 82.0977 129.598 82.425C129.539 82.7523 129.374 83.049 129.129 83.266C128.69 83.758 128.093 84.0704 127.449 84.146C124.256 84.4936 121.481 85.9061 118.923 87.7717C118.185 88.2997 117.29 89.039 116.497 87.9961C115.704 86.9533 116.36 86.0777 117.209 85.4088C120.415 82.8743 123.958 81.1495 128.05 80.8151Z" fill="#333333"/>
<path d="M81.3804 25.1179C79.1477 24.6374 76.8393 24.6765 74.6231 25.2323C73.8728 25.4215 73.1864 25.2015 72.969 24.3083C72.7771 23.5075 73.0287 22.7858 73.7747 22.4954C76.5052 21.4167 79.507 21.3129 82.3013 22.2006C83.0047 22.4162 83.5803 22.9926 83.3671 23.8551C83.0943 24.8847 82.1905 24.9859 81.3804 25.1179Z" fill="#333333"/>
<path d="M12.5794 22.8915C12.3068 24.8814 11.3849 26.716 9.96603 28.0924C9.84948 28.231 9.70623 28.3429 9.54542 28.4211C9.38461 28.4993 9.20977 28.542 9.03206 28.5466C8.85435 28.5511 8.67767 28.5174 8.5133 28.4476C8.34892 28.3777 8.20047 28.2732 8.0774 28.1408C7.80447 27.9025 7.62871 27.5667 7.58524 27.2004C7.54178 26.8341 7.63379 26.4645 7.84292 26.1652C8.61457 24.7835 9.36065 23.3887 10.1238 22.0026C10.4478 21.4042 10.8698 20.863 11.6074 21.0258C12.4942 21.2194 12.4814 22.0378 12.5794 22.8915Z" fill="#333333"/>
<path d="M54.1593 72.138C54.1593 73.458 52.8803 74.3601 52.0277 73.458C49.6786 70.9808 46.1358 70.1667 44.1491 67.2318C43.7228 66.6378 43.1856 66.1494 43.1345 65.3574C43.0876 64.6533 43.2496 64.0373 43.9061 63.6853C44.5627 63.3333 45.2789 63.3949 45.6115 64.0241C47.2187 66.9414 50.1263 68.1471 52.6459 69.8675C53.4687 70.4307 54.1295 71.0644 54.1593 72.138Z" fill="#333333"/>
<path d="M76.8057 27.2916V27.5424C76.8057 27.9147 76.949 28.2717 77.204 28.5349C77.459 28.7982 77.805 28.946 78.1657 28.946C78.5263 28.946 78.8723 28.7982 79.1273 28.5349C79.3824 28.2717 79.5256 27.9147 79.5256 27.5424V27.2916C79.5256 26.9193 79.3824 26.5623 79.1273 26.2991C78.8723 26.0358 78.5263 25.8879 78.1657 25.8879C77.805 25.8879 77.459 26.0358 77.204 26.2991C76.949 26.5623 76.8057 26.9193 76.8057 27.2916Z" fill="#333333"/>
</g>
<defs>
<clipPath id="clip0_22_10">
<rect width="141.132" height="129.409" fill="white" transform="translate(0.868164 0.591431)"/>
</clipPath>
</defs>
</svg>
